solid "1mm Spacer"
  facet normal 0.770431160927 -0.637523174286 0
    outer loop
      vertex 7.24749755859 40.2231903076 2.99900007248
      vertex 7.09999847412 40.0449409485 3.99900007248
      vertex 7.09999847412 40.0449409485 2.99900007248
    endloop
  endfacet
  facet normal 0.770431160927 -0.637523174286 0
    outer loop
      vertex 7.09999847412 40.0449409485 3.99900007248
      vertex 7.24749755859 40.2231903076 2.99900007248
      vertex 7.24749755859 40.2231903076 3.99900007248
    endloop
  endfacet
  facet normal 0.684577584267 -0.728940010071 0
    outer loop
      vertex 7.99810028076 40.92811203 3.99900007248
      vertex 7.24749755859 40.2231903076 2.99900007248
      vertex 7.99810028076 40.92811203 2.99900007248
    endloop
  endfacet
  facet normal 0.684577584267 -0.728940010071 0
    outer loop
      vertex 7.24749755859 40.2231903076 2.99900007248
      vertex 7.99810028076 40.92811203 3.99900007248
      vertex 7.24749755859 40.2231903076 3.99900007248
    endloop
  endfacet
  facet normal 0.587785005569 -0.809017181396 0
    outer loop
      vertex 8.831199646 41.5333938599 3.99900007248
      vertex 7.99810028076 40.92811203 2.99900007248
      vertex 8.831199646 41.5333938599 2.99900007248
    endloop
  endfacet
  facet normal 0.587785005569 -0.809017181396 0
    outer loop
      vertex 7.99810028076 40.92811203 2.99900007248
      vertex 8.831199646 41.5333938599 3.99900007248
      vertex 7.99810028076 40.92811203 3.99900007248
    endloop
  endfacet
  facet normal 0.481743961573 -0.876312017441 0
    outer loop
      vertex 9.73360061646 42.0294799805 3.99900007248
      vertex 8.831199646 41.5333938599 2.99900007248
      vertex 9.73360061646 42.0294799805 2.99900007248
    endloop
  endfacet
  facet normal 0.481743961573 -0.876312017441 0
    outer loop
      vertex 8.831199646 41.5333938599 2.99900007248
      vertex 9.73360061646 42.0294799805 3.99900007248
      vertex 8.831199646 41.5333938599 3.99900007248
    endloop
  endfacet
  facet normal 0.368109673262 -0.929782390594 0
    outer loop
      vertex 10.6910972595 42.4085617065 3.99900007248
      vertex 9.73360061646 42.0294799805 2.99900007248
      vertex 10.6910972595 42.4085617065 2.99900007248
    endloop
  endfacet
  facet normal 0.368109673262 -0.929782390594 0
    outer loop
      vertex 9.73360061646 42.0294799805 2.99900007248
      vertex 10.6910972595 42.4085617065 3.99900007248
      vertex 9.73360061646 42.0294799805 3.99900007248
    endloop
  endfacet
  facet normal 0.248699203134 -0.968580782413 0
    outer loop
      vertex 11.6884994507 42.6646614075 3.99900007248
      vertex 10.6910972595 42.4085617065 2.99900007248
      vertex 11.6884994507 42.6646614075 2.99900007248
    endloop
  endfacet
  facet normal 0.248699203134 -0.968580782413 0
    outer loop
      vertex 10.6910972595 42.4085617065 2.99900007248
      vertex 11.6884994507 42.6646614075 3.99900007248
      vertex 10.6910972595 42.4085617065 3.99900007248
    endloop
  endfacet
  facet normal 0.125337451696 -0.992114186287 0
    outer loop
      vertex 12.7100982666 42.7937240601 3.99900007248
      vertex 11.6884994507 42.6646614075 2.99900007248
      vertex 12.7100982666 42.7937240601 2.99900007248
    endloop
  endfacet
  facet normal 0.125337451696 -0.992114186287 0
    outer loop
      vertex 11.6884994507 42.6646614075 2.99900007248
      vertex 12.7100982666 42.7937240601 3.99900007248
      vertex 11.6884994507 42.6646614075 3.99900007248
    endloop
  endfacet
  facet normal 0 -1 0
    outer loop
      vertex 13.7398986816 42.7937240601 2.99900007248
      vertex 12.7100982666 42.7937240601 3.99900007248
      vertex 12.7100982666 42.7937240601 2.99900007248
    endloop
  endfacet
  facet normal 0 -1 0
    outer loop
      vertex 12.7100982666 42.7937240601 3.99900007248
      vertex 13.7398986816 42.7937240601 2.99900007248
      vertex 13.7398986816 42.7937240601 3.99900007248
    endloop
  endfacet
  facet normal -0.248688787222 -0.968583464622 -0
    outer loop
      vertex 15.7588996887 42.4085617065 3.99900007248
      vertex 14.7614974976 42.6646499634 2.99900007248
      vertex 15.7588996887 42.4085617065 2.99900007248
    endloop
  endfacet
  facet normal -0.248688787222 -0.968583464622 0
    outer loop
      vertex 14.7614974976 42.6646499634 2.99900007248
      vertex 15.7588996887 42.4085617065 3.99900007248
      vertex 14.7614974976 42.6646499634 3.99900007248
    endloop
  endfacet
  facet normal -0.368108421564 -0.929782867432 -0
    outer loop
      vertex 16.7164001465 42.0294799805 3.99900007248
      vertex 15.7588996887 42.4085617065 2.99900007248
      vertex 16.7164001465 42.0294799805 2.99900007248
    endloop
  endfacet
  facet normal -0.368108421564 -0.929782867432 0
    outer loop
      vertex 15.7588996887 42.4085617065 2.99900007248
      vertex 16.7164001465 42.0294799805 3.99900007248
      vertex 15.7588996887 42.4085617065 3.99900007248
    endloop
  endfacet
  facet normal -0.481744676828 -0.876311659813 -0
    outer loop
      vertex 17.6187992096 41.5333938599 3.99900007248
      vertex 16.7164001465 42.0294799805 2.99900007248
      vertex 17.6187992096 41.5333938599 2.99900007248
    endloop
  endfacet
  facet normal -0.481744676828 -0.876311659813 0
    outer loop
      vertex 16.7164001465 42.0294799805 2.99900007248
      vertex 17.6187992096 41.5333938599 3.99900007248
      vertex 16.7164001465 42.0294799805 3.99900007248
    endloop
  endfacet
  facet normal -0.587785243988 -0.809017002583 -0
    outer loop
      vertex 18.4518985748 40.92811203 3.99900007248
      vertex 17.6187992096 41.5333938599 2.99900007248
      vertex 18.4518985748 40.92811203 2.99900007248
    endloop
  endfacet
  facet normal -0.587785243988 -0.809017002583 0
    outer loop
      vertex 17.6187992096 41.5333938599 2.99900007248
      vertex 18.4518985748 40.92811203 3.99900007248
      vertex 17.6187992096 41.5333938599 3.99900007248
    endloop
  endfacet
  facet normal -0.684530138969 -0.72898453474 -0
    outer loop
      vertex 19.2025985718 40.2231903076 3.99900007248
      vertex 18.4518985748 40.92811203 2.99900007248
      vertex 19.2025985718 40.2231903076 2.99900007248
    endloop
  endfacet
  facet normal -0.684530138969 -0.72898453474 0
    outer loop
      vertex 18.4518985748 40.92811203 2.99900007248
      vertex 19.2025985718 40.2231903076 3.99900007248
      vertex 18.4518985748 40.92811203 3.99900007248
    endloop
  endfacet
  facet normal -0.770642161369 0.637268066406 -1.42449037986e-17
    outer loop
      vertex 19.3499984741 29.174861908 3.99900007248
      vertex 19.2025985718 28.9966125488 3
      vertex 19.2025985718 28.9966125488 3.99900007248
    endloop
  endfacet
  facet normal -0.770642161369 0.637268066406 -1.42449037986e-17
    outer loop
      vertex 19.2025985718 28.9966125488 3
      vertex 19.3499984741 29.174861908 3.99900007248
      vertex 19.3499984741 29.174861908 3
    endloop
  endfacet
  facet normal -0.684530317783 0.728984415531 0
    outer loop
      vertex 18.4518985748 28.2916908264 3.99900007248
      vertex 19.2025985718 28.9966125488 3
      vertex 18.4518985748 28.2916908264 3
    endloop
  endfacet
  facet normal -0.684530317783 0.728984415531 0
    outer loop
      vertex 19.2025985718 28.9966125488 3
      vertex 18.4518985748 28.2916908264 3.99900007248
      vertex 19.2025985718 28.9966125488 3.99900007248
    endloop
  endfacet
  facet normal -0.587782502174 0.809018969536 0
    outer loop
      vertex 17.6187992096 27.6864128113 3.99900007248
      vertex 18.4518985748 28.2916908264 3
      vertex 17.6187992096 27.6864128113 3
    endloop
  endfacet
  facet normal -0.587782502174 0.809018969536 0
    outer loop
      vertex 18.4518985748 28.2916908264 3
      vertex 17.6187992096 27.6864128113 3.99900007248
      vertex 18.4518985748 28.2916908264 3.99900007248
    endloop
  endfacet
  facet normal -0.481747627258 0.876309990883 0
    outer loop
      vertex 16.7164001465 27.190322876 3.99900007248
      vertex 17.6187992096 27.6864128113 3
      vertex 16.7164001465 27.190322876 3
    endloop
  endfacet
  facet normal -0.481747627258 0.876309990883 0
    outer loop
      vertex 17.6187992096 27.6864128113 3
      vertex 16.7164001465 27.190322876 3.99900007248
      vertex 17.6187992096 27.6864128113 3.99900007248
    endloop
  endfacet
  facet normal -0.368107795715 0.92978310585 0
    outer loop
      vertex 15.7588996887 26.8112411499 3.99900007248
      vertex 16.7164001465 27.190322876 3
      vertex 15.7588996887 26.8112411499 3
    endloop
  endfacet
  facet normal -0.368107795715 0.92978310585 0
    outer loop
      vertex 16.7164001465 27.190322876 3
      vertex 15.7588996887 26.8112411499 3.99900007248
      vertex 16.7164001465 27.190322876 3.99900007248
    endloop
  endfacet
  facet normal -0.248688787222 0.968583464622 0
    outer loop
      vertex 14.7614974976 26.5551528931 3.99900007248
      vertex 15.7588996887 26.8112411499 3
      vertex 14.7614974976 26.5551528931 3
    endloop
  endfacet
  facet normal -0.248688787222 0.968583464622 0
    outer loop
      vertex 15.7588996887 26.8112411499 3
      vertex 14.7614974976 26.5551528931 3.99900007248
      vertex 15.7588996887 26.8112411499 3.99900007248
    endloop
  endfacet
  facet normal -0.125345528126 0.992113173008 0
    outer loop
      vertex 13.7398986816 26.4260826111 3.99900007248
      vertex 14.7614974976 26.5551528931 3
      vertex 13.7398986816 26.4260826111 3
    endloop
  endfacet
  facet normal -0.125345528126 0.992113173008 0
    outer loop
      vertex 14.7614974976 26.5551528931 3
      vertex 13.7398986816 26.4260826111 3.99900007248
      vertex 14.7614974976 26.5551528931 3.99900007248
    endloop
  endfacet
  facet normal 0 1 0
    outer loop
      vertex 12.7100982666 26.4260826111 3.99900007248
      vertex 13.7398986816 26.4260826111 3
      vertex 12.7100982666 26.4260826111 3
    endloop
  endfacet
  facet normal 0 1 -0
    outer loop
      vertex 13.7398986816 26.4260826111 3
      vertex 12.7100982666 26.4260826111 3.99900007248
      vertex 13.7398986816 26.4260826111 3.99900007248
    endloop
  endfacet
  facet normal 0.125345528126 0.992113173008 0
    outer loop
      vertex 11.6884994507 26.5551528931 3.99900007248
      vertex 12.7100982666 26.4260826111 3
      vertex 11.6884994507 26.5551528931 3
    endloop
  endfacet
  facet normal 0.125345528126 0.992113173008 -0
    outer loop
      vertex 12.7100982666 26.4260826111 3
      vertex 11.6884994507 26.5551528931 3.99900007248
      vertex 12.7100982666 26.4260826111 3.99900007248
    endloop
  endfacet
  facet normal 0.248688787222 0.968583464622 0
    outer loop
      vertex 10.6910972595 26.8112411499 3.99900007248
      vertex 11.6884994507 26.5551528931 3
      vertex 10.6910972595 26.8112411499 3
    endloop
  endfacet
  facet normal 0.248688787222 0.968583464622 -0
    outer loop
      vertex 11.6884994507 26.5551528931 3
      vertex 10.6910972595 26.8112411499 3.99900007248
      vertex 11.6884994507 26.5551528931 3.99900007248
    endloop
  endfacet
  facet normal 0.368109047413 0.929782629013 0
    outer loop
      vertex 9.73360061646 27.190322876 3.99900007248
      vertex 10.6910972595 26.8112411499 3
      vertex 9.73360061646 27.190322876 3
    endloop
  endfacet
  facet normal 0.368109047413 0.929782629013 -0
    outer loop
      vertex 10.6910972595 26.8112411499 3
      vertex 9.73360061646 27.190322876 3.99900007248
      vertex 10.6910972595 26.8112411499 3.99900007248
    endloop
  endfacet
  facet normal 0.481746912003 0.876310408115 0
    outer loop
      vertex 8.831199646 27.6864128113 3.99900007248
      vertex 9.73360061646 27.190322876 3
      vertex 8.831199646 27.6864128113 3
    endloop
  endfacet
  facet normal 0.481746912003 0.876310408115 -0
    outer loop
      vertex 9.73360061646 27.190322876 3
      vertex 8.831199646 27.6864128113 3.99900007248
      vertex 9.73360061646 27.190322876 3.99900007248
    endloop
  endfacet
  facet normal 0.58778232336 0.80901914835 0
    outer loop
      vertex 7.99810028076 28.2916908264 3.99900007248
      vertex 8.831199646 27.6864128113 3
      vertex 7.99810028076 28.2916908264 3
    endloop
  endfacet
  facet normal 0.58778232336 0.80901914835 -0
    outer loop
      vertex 8.831199646 27.6864128113 3
      vertex 7.99810028076 28.2916908264 3.99900007248
      vertex 8.831199646 27.6864128113 3.99900007248
    endloop
  endfacet
  facet normal 0.684577703476 0.728939890862 0
    outer loop
      vertex 7.24749755859 28.9966125488 3.99900007248
      vertex 7.99810028076 28.2916908264 3
      vertex 7.24749755859 28.9966125488 3
    endloop
  endfacet
  facet normal 0.684577703476 0.728939890862 -0
    outer loop
      vertex 7.99810028076 28.2916908264 3
      vertex 7.24749755859 28.9966125488 3.99900007248
      vertex 7.99810028076 28.2916908264 3.99900007248
    endloop
  endfacet
  facet normal 0.770431160927 0.637523174286 -1.42451023219e-17
    outer loop
      vertex 7.09999847412 29.174861908 3
      vertex 7.24749755859 28.9966125488 3.99900007248
      vertex 7.24749755859 28.9966125488 3
    endloop
  endfacet
  facet normal 0.770431160927 0.637523174286 -1.42451023219e-17
    outer loop
      vertex 7.24749755859 28.9966125488 3.99900007248
      vertex 7.09999847412 29.174861908 3
      vertex 7.09999847412 29.174861908 3.99900007248
    endloop
  endfacet
  facet normal 0 0 1
    outer loop
      vertex 7.24749755859 40.2231903076 3.99900007248
      vertex 7.09999847412 54.7849006653 3.99900007248
      vertex 7.09999847412 40.0449409485 3.99900007248
    endloop
  endfacet
  facet normal -0 0 1
    outer loop
      vertex 7.09999847412 54.7849006653 3.99900007248
      vertex 7.24749755859 40.2231903076 3.99900007248
      vertex 19.3499984741 54.7849006653 3.99900007248
    endloop
  endfacet
  facet normal 0 0 1
    outer loop
      vertex 19.3499984741 54.7849006653 3.99900007248
      vertex 7.24749755859 40.2231903076 3.99900007248
      vertex 7.99810028076 40.92811203 3.99900007248
    endloop
  endfacet
  facet normal 0 0 1
    outer loop
      vertex 19.3499984741 54.7849006653 3.99900007248
      vertex 7.99810028076 40.92811203 3.99900007248
      vertex 8.831199646 41.5333938599 3.99900007248
    endloop
  endfacet
  facet normal 0 0 1
    outer loop
      vertex 19.3499984741 54.7849006653 3.99900007248
      vertex 8.831199646 41.5333938599 3.99900007248
      vertex 9.73360061646 42.0294799805 3.99900007248
    endloop
  endfacet
  facet normal 0 0 1
    outer loop
      vertex 19.3499984741 54.7849006653 3.99900007248
      vertex 9.73360061646 42.0294799805 3.99900007248
      vertex 10.6910972595 42.4085617065 3.99900007248
    endloop
  endfacet
  facet normal 0 0 1
    outer loop
      vertex 19.3499984741 54.7849006653 3.99900007248
      vertex 10.6910972595 42.4085617065 3.99900007248
      vertex 11.6884994507 42.6646614075 3.99900007248
    endloop
  endfacet
  facet normal 0 0 1
    outer loop
      vertex 19.3499984741 54.7849006653 3.99900007248
      vertex 11.6884994507 42.6646614075 3.99900007248
      vertex 12.7100982666 42.7937240601 3.99900007248
    endloop
  endfacet
  facet normal 0 0 1
    outer loop
      vertex 19.3499984741 54.7849006653 3.99900007248
      vertex 12.7100982666 42.7937240601 3.99900007248
      vertex 13.7398986816 42.7937240601 3.99900007248
    endloop
  endfacet
  facet normal 0 0 1
    outer loop
      vertex 19.3499984741 54.7849006653 3.99900007248
      vertex 13.7398986816 42.7937240601 3.99900007248
      vertex 14.7614974976 42.6646499634 3.99900007248
    endloop
  endfacet
  facet normal 0 0 1
    outer loop
      vertex 19.3499984741 54.7849006653 3.99900007248
      vertex 14.7614974976 42.6646499634 3.99900007248
      vertex 15.7588996887 42.4085617065 3.99900007248
    endloop
  endfacet
  facet normal 0 0 1
    outer loop
      vertex 19.3499984741 54.7849006653 3.99900007248
      vertex 15.7588996887 42.4085617065 3.99900007248
      vertex 16.7164001465 42.0294799805 3.99900007248
    endloop
  endfacet
  facet normal 0 0 1
    outer loop
      vertex 19.3499984741 54.7849006653 3.99900007248
      vertex 16.7164001465 42.0294799805 3.99900007248
      vertex 17.6187992096 41.5333938599 3.99900007248
    endloop
  endfacet
  facet normal 0 0 1
    outer loop
      vertex 19.3499984741 54.7849006653 3.99900007248
      vertex 17.6187992096 41.5333938599 3.99900007248
      vertex 18.4518985748 40.92811203 3.99900007248
    endloop
  endfacet
  facet normal 0 0 1
    outer loop
      vertex 19.3499984741 54.7849006653 3.99900007248
      vertex 18.4518985748 40.92811203 3.99900007248
      vertex 19.2025985718 40.2231903076 3.99900007248
    endloop
  endfacet
  facet normal 0 0 1
    outer loop
      vertex 19.3499984741 54.7849006653 3.99900007248
      vertex 19.2025985718 40.2231903076 3.99900007248
      vertex 19.3499984741 40.0449409485 3.99900007248
    endloop
  endfacet
  facet normal 0 0 1
    outer loop
      vertex 7.09999847412 21.4349021912 3.99900007248
      vertex 7.24749755859 28.9966125488 3.99900007248
      vertex 7.09999847412 29.174861908 3.99900007248
    endloop
  endfacet
  facet normal 0 0 1
    outer loop
      vertex 7.24749755859 28.9966125488 3.99900007248
      vertex 7.09999847412 21.4349021912 3.99900007248
      vertex 7.99810028076 28.2916908264 3.99900007248
    endloop
  endfacet
  facet normal 0 0 1
    outer loop
      vertex 7.99810028076 28.2916908264 3.99900007248
      vertex 7.09999847412 21.4349021912 3.99900007248
      vertex 8.831199646 27.6864128113 3.99900007248
    endloop
  endfacet
  facet normal 0 0 1
    outer loop
      vertex 8.831199646 27.6864128113 3.99900007248
      vertex 7.09999847412 21.4349021912 3.99900007248
      vertex 19.3499984741 21.4349021912 3.99900007248
    endloop
  endfacet
  facet normal 0 0 1
    outer loop
      vertex 8.831199646 27.6864128113 3.99900007248
      vertex 19.3499984741 21.4349021912 3.99900007248
      vertex 9.73360061646 27.190322876 3.99900007248
    endloop
  endfacet
  facet normal 0 0 1
    outer loop
      vertex 9.73360061646 27.190322876 3.99900007248
      vertex 19.3499984741 21.4349021912 3.99900007248
      vertex 10.6910972595 26.8112411499 3.99900007248
    endloop
  endfacet
  facet normal 0 0 1
    outer loop
      vertex 10.6910972595 26.8112411499 3.99900007248
      vertex 19.3499984741 21.4349021912 3.99900007248
      vertex 11.6884994507 26.5551528931 3.99900007248
    endloop
  endfacet
  facet normal 0 0 1
    outer loop
      vertex 11.6884994507 26.5551528931 3.99900007248
      vertex 19.3499984741 21.4349021912 3.99900007248
      vertex 12.7100982666 26.4260826111 3.99900007248
    endloop
  endfacet
  facet normal -0 0 1
    outer loop
      vertex 12.7100982666 26.4260826111 3.99900007248
      vertex 19.3499984741 21.4349021912 3.99900007248
      vertex 13.7398986816 26.4260826111 3.99900007248
    endloop
  endfacet
  facet normal -0 0 1
    outer loop
      vertex 13.7398986816 26.4260826111 3.99900007248
      vertex 19.3499984741 21.4349021912 3.99900007248
      vertex 14.7614974976 26.5551528931 3.99900007248
    endloop
  endfacet
  facet normal -0 0 1
    outer loop
      vertex 14.7614974976 26.5551528931 3.99900007248
      vertex 19.3499984741 21.4349021912 3.99900007248
      vertex 15.7588996887 26.8112411499 3.99900007248
    endloop
  endfacet
  facet normal -0 0 1
    outer loop
      vertex 15.7588996887 26.8112411499 3.99900007248
      vertex 19.3499984741 21.4349021912 3.99900007248
      vertex 16.7164001465 27.190322876 3.99900007248
    endloop
  endfacet
  facet normal -0 0 1
    outer loop
      vertex 16.7164001465 27.190322876 3.99900007248
      vertex 19.3499984741 21.4349021912 3.99900007248
      vertex 17.6187992096 27.6864128113 3.99900007248
    endloop
  endfacet
  facet normal -0 0 1
    outer loop
      vertex 17.6187992096 27.6864128113 3.99900007248
      vertex 19.3499984741 21.4349021912 3.99900007248
      vertex 18.4518985748 28.2916908264 3.99900007248
    endloop
  endfacet
  facet normal -0 0 1
    outer loop
      vertex 18.4518985748 28.2916908264 3.99900007248
      vertex 19.3499984741 21.4349021912 3.99900007248
      vertex 19.2025985718 28.9966125488 3.99900007248
    endloop
  endfacet
  facet normal -0 0 1
    outer loop
      vertex 19.2025985718 28.9966125488 3.99900007248
      vertex 19.3499984741 21.4349021912 3.99900007248
      vertex 19.3499984741 29.174861908 3.99900007248
    endloop
  endfacet
  facet normal 0 1 0
    outer loop
      vertex 7.09999847412 54.7849006653 3.99900007248
      vertex 19.3499984741 54.7849006653 2.99900007248
      vertex 7.09999847412 54.7849006653 2.99900007248
    endloop
  endfacet
  facet normal 0 1 -0
    outer loop
      vertex 19.3499984741 54.7849006653 2.99900007248
      vertex 7.09999847412 54.7849006653 3.99900007248
      vertex 19.3499984741 54.7849006653 3.99900007248
    endloop
  endfacet
  facet normal -1 -0 0
    outer loop
      vertex 19.3499984741 29.174861908 3.99900007248
      vertex 19.3499984741 21.4349021912 3
      vertex 19.3499984741 21.4349021912 3.99900007248
    endloop
  endfacet
  facet normal -1 0 0
    outer loop
      vertex 19.3499984741 21.4349021912 3
      vertex 19.3499984741 29.174861908 3.99900007248
      vertex 19.3499984741 29.174861908 3
    endloop
  endfacet
  facet normal 1 0 0
    outer loop
      vertex 7.09999847412 29.174861908 3
      vertex 7.09999847412 21.4349021912 3.99900007248
      vertex 7.09999847412 21.4349021912 3
    endloop
  endfacet
  facet normal 1 -0 0
    outer loop
      vertex 7.09999847412 21.4349021912 3.99900007248
      vertex 7.09999847412 29.174861908 3
      vertex 7.09999847412 29.174861908 3.99900007248
    endloop
  endfacet
  facet normal 0 1 0
    outer loop
      vertex 7.09999847412 21.4349021912 3.99900007248
      vertex 19.3499984741 21.4349021912 3
      vertex 7.09999847412 21.4349021912 3
    endloop
  endfacet
  facet normal 0 1 -0
    outer loop
      vertex 19.3499984741 21.4349021912 3
      vertex 7.09999847412 21.4349021912 3.99900007248
      vertex 19.3499984741 21.4349021912 3.99900007248
    endloop
  endfacet
  facet normal 0 0 1
    outer loop
      vertex 7.09999847412 21.4349021912 3
      vertex 7.24749755859 28.9966125488 3
      vertex 7.09999847412 29.174861908 3
    endloop
  endfacet
  facet normal 0 0 1
    outer loop
      vertex 7.24749755859 28.9966125488 3
      vertex 7.09999847412 21.4349021912 3
      vertex 7.99810028076 28.2916908264 3
    endloop
  endfacet
  facet normal 0 0 1
    outer loop
      vertex 7.99810028076 28.2916908264 3
      vertex 7.09999847412 21.4349021912 3
      vertex 8.831199646 27.6864128113 3
    endloop
  endfacet
  facet normal 0 0 1
    outer loop
      vertex 8.831199646 27.6864128113 3
      vertex 7.09999847412 21.4349021912 3
      vertex 19.3499984741 21.4349021912 3
    endloop
  endfacet
  facet normal 0 0 1
    outer loop
      vertex 8.831199646 27.6864128113 3
      vertex 19.3499984741 21.4349021912 3
      vertex 9.73360061646 27.190322876 3
    endloop
  endfacet
  facet normal 0 0 1
    outer loop
      vertex 9.73360061646 27.190322876 3
      vertex 19.3499984741 21.4349021912 3
      vertex 10.6910972595 26.8112411499 3
    endloop
  endfacet
  facet normal 0 0 1
    outer loop
      vertex 10.6910972595 26.8112411499 3
      vertex 19.3499984741 21.4349021912 3
      vertex 11.6884994507 26.5551528931 3
    endloop
  endfacet
  facet normal 0 0 1
    outer loop
      vertex 11.6884994507 26.5551528931 3
      vertex 19.3499984741 21.4349021912 3
      vertex 12.7100982666 26.4260826111 3
    endloop
  endfacet
  facet normal -0 0 1
    outer loop
      vertex 12.7100982666 26.4260826111 3
      vertex 19.3499984741 21.4349021912 3
      vertex 13.7398986816 26.4260826111 3
    endloop
  endfacet
  facet normal -0 0 1
    outer loop
      vertex 13.7398986816 26.4260826111 3
      vertex 19.3499984741 21.4349021912 3
      vertex 14.7614974976 26.5551528931 3
    endloop
  endfacet
  facet normal -0 0 1
    outer loop
      vertex 14.7614974976 26.5551528931 3
      vertex 19.3499984741 21.4349021912 3
      vertex 15.7588996887 26.8112411499 3
    endloop
  endfacet
  facet normal -0 0 1
    outer loop
      vertex 15.7588996887 26.8112411499 3
      vertex 19.3499984741 21.4349021912 3
      vertex 16.7164001465 27.190322876 3
    endloop
  endfacet
  facet normal -0 0 1
    outer loop
      vertex 16.7164001465 27.190322876 3
      vertex 19.3499984741 21.4349021912 3
      vertex 17.6187992096 27.6864128113 3
    endloop
  endfacet
  facet normal -0 0 1
    outer loop
      vertex 17.6187992096 27.6864128113 3
      vertex 19.3499984741 21.4349021912 3
      vertex 18.4518985748 28.2916908264 3
    endloop
  endfacet
  facet normal -0 0 1
    outer loop
      vertex 18.4518985748 28.2916908264 3
      vertex 19.3499984741 21.4349021912 3
      vertex 19.2025985718 28.9966125488 3
    endloop
  endfacet
  facet normal -0 0 1
    outer loop
      vertex 19.2025985718 28.9966125488 3
      vertex 19.3499984741 21.4349021912 3
      vertex 19.3499984741 29.174861908 3
    endloop
  endfacet
  facet normal -1 -0 0
    outer loop
      vertex 19.3499984741 54.7849006653 3.99900007248
      vertex 19.3499984741 40.0449409485 2.99900007248
      vertex 19.3499984741 40.0449409485 3.99900007248
    endloop
  endfacet
  facet normal -1 0 0
    outer loop
      vertex 19.3499984741 40.0449409485 2.99900007248
      vertex 19.3499984741 54.7849006653 3.99900007248
      vertex 19.3499984741 54.7849006653 2.99900007248
    endloop
  endfacet
  facet normal 1 0 0
    outer loop
      vertex 7.09999847412 54.7849006653 2.99900007248
      vertex 7.09999847412 40.0449409485 3.99900007248
      vertex 7.09999847412 40.0449409485 2.99900007248
    endloop
  endfacet
  facet normal 1 -0 0
    outer loop
      vertex 7.09999847412 40.0449409485 3.99900007248
      vertex 7.09999847412 54.7849006653 2.99900007248
      vertex 7.09999847412 54.7849006653 3.99900007248
    endloop
  endfacet
  facet normal -0.770642161369 -0.637268066406 0
    outer loop
      vertex 19.2025985718 40.2231903076 3.99900007248
      vertex 19.3499984741 40.0449409485 2.99900007248
      vertex 19.3499984741 40.0449409485 3.99900007248
    endloop
  endfacet
  facet normal -0.770642161369 -0.637268066406 0
    outer loop
      vertex 19.3499984741 40.0449409485 2.99900007248
      vertex 19.2025985718 40.2231903076 3.99900007248
      vertex 19.2025985718 40.2231903076 2.99900007248
    endloop
  endfacet
  facet normal -0.125348374248 -0.99211281538 -0
    outer loop
      vertex 14.7614974976 42.6646499634 3.99900007248
      vertex 13.7398986816 42.7937240601 2.99900007248
      vertex 14.7614974976 42.6646499634 2.99900007248
    endloop
  endfacet
  facet normal -0.125348374248 -0.99211281538 0
    outer loop
      vertex 13.7398986816 42.7937240601 2.99900007248
      vertex 14.7614974976 42.6646499634 3.99900007248
      vertex 13.7398986816 42.7937240601 3.99900007248
    endloop
  endfacet
  facet normal 0 0 -1
    outer loop
      vertex 7.09999847412 54.7849006653 2.99900007248
      vertex 7.24749755859 40.2231903076 2.99900007248
      vertex 7.09999847412 40.0449409485 2.99900007248
    endloop
  endfacet
  facet normal 0 0 -1
    outer loop
      vertex 7.24749755859 40.2231903076 2.99900007248
      vertex 7.09999847412 54.7849006653 2.99900007248
      vertex 19.3499984741 54.7849006653 2.99900007248
    endloop
  endfacet
  facet normal 0 0 -1
    outer loop
      vertex 7.24749755859 40.2231903076 2.99900007248
      vertex 19.3499984741 54.7849006653 2.99900007248
      vertex 7.99810028076 40.92811203 2.99900007248
    endloop
  endfacet
  facet normal 0 0 -1
    outer loop
      vertex 7.99810028076 40.92811203 2.99900007248
      vertex 19.3499984741 54.7849006653 2.99900007248
      vertex 8.831199646 41.5333938599 2.99900007248
    endloop
  endfacet
  facet normal 0 0 -1
    outer loop
      vertex 8.831199646 41.5333938599 2.99900007248
      vertex 19.3499984741 54.7849006653 2.99900007248
      vertex 9.73360061646 42.0294799805 2.99900007248
    endloop
  endfacet
  facet normal 0 0 -1
    outer loop
      vertex 9.73360061646 42.0294799805 2.99900007248
      vertex 19.3499984741 54.7849006653 2.99900007248
      vertex 10.6910972595 42.4085617065 2.99900007248
    endloop
  endfacet
  facet normal 0 0 -1
    outer loop
      vertex 10.6910972595 42.4085617065 2.99900007248
      vertex 19.3499984741 54.7849006653 2.99900007248
      vertex 11.6884994507 42.6646614075 2.99900007248
    endloop
  endfacet
  facet normal 0 0 -1
    outer loop
      vertex 11.6884994507 42.6646614075 2.99900007248
      vertex 19.3499984741 54.7849006653 2.99900007248
      vertex 12.7100982666 42.7937240601 2.99900007248
    endloop
  endfacet
  facet normal 0 0 -1
    outer loop
      vertex 12.7100982666 42.7937240601 2.99900007248
      vertex 19.3499984741 54.7849006653 2.99900007248
      vertex 13.7398986816 42.7937240601 2.99900007248
    endloop
  endfacet
  facet normal 0 0 -1
    outer loop
      vertex 13.7398986816 42.7937240601 2.99900007248
      vertex 19.3499984741 54.7849006653 2.99900007248
      vertex 14.7614974976 42.6646499634 2.99900007248
    endloop
  endfacet
  facet normal 0 0 -1
    outer loop
      vertex 14.7614974976 42.6646499634 2.99900007248
      vertex 19.3499984741 54.7849006653 2.99900007248
      vertex 15.7588996887 42.4085617065 2.99900007248
    endloop
  endfacet
  facet normal 0 0 -1
    outer loop
      vertex 15.7588996887 42.4085617065 2.99900007248
      vertex 19.3499984741 54.7849006653 2.99900007248
      vertex 16.7164001465 42.0294799805 2.99900007248
    endloop
  endfacet
  facet normal 0 0 -1
    outer loop
      vertex 16.7164001465 42.0294799805 2.99900007248
      vertex 19.3499984741 54.7849006653 2.99900007248
      vertex 17.6187992096 41.5333938599 2.99900007248
    endloop
  endfacet
  facet normal 0 0 -1
    outer loop
      vertex 17.6187992096 41.5333938599 2.99900007248
      vertex 19.3499984741 54.7849006653 2.99900007248
      vertex 18.4518985748 40.92811203 2.99900007248
    endloop
  endfacet
  facet normal 0 0 -1
    outer loop
      vertex 18.4518985748 40.92811203 2.99900007248
      vertex 19.3499984741 54.7849006653 2.99900007248
      vertex 19.2025985718 40.2231903076 2.99900007248
    endloop
  endfacet
  facet normal 0 0 -1
    outer loop
      vertex 19.2025985718 40.2231903076 2.99900007248
      vertex 19.3499984741 54.7849006653 2.99900007248
      vertex 19.3499984741 40.0449409485 2.99900007248
    endloop
  endfacet
endsolid "1mm Spacer"
